<?xml version="1.0" standalone="no"?>
<!DOCTYPE svg PUBLIC "-//W3C//DTD SVG 20010904//EN"
 "http://www.w3.org/TR/2001/REC-SVG-20010904/DTD/svg10.dtd">
<svg version="1.0" xmlns="http://www.w3.org/2000/svg"
 width="940.000000pt" height="940.000000pt" viewBox="0 0 940.000000 940.000000"
 preserveAspectRatio="xMidYMid meet">
<metadata>
Created by potrace 1.14, written by Peter Selinger 2001-2017
</metadata>
<g transform="translate(0.000000,940.000000) scale(0.100000,-0.100000)"
fill="#000000" stroke="none">
<path d="M3810 6179 c0 -6 -5 -9 -12 -7 -6 2 -20 -4 -30 -14 -10 -10 -27 -18
-38 -18 -11 0 -19 -4 -17 -8 1 -5 -15 -26 -35 -46 -21 -21 -38 -41 -38 -46 0
-4 -12 -34 -27 -66 -14 -33 -27 -66 -29 -74 -11 -54 -18 -77 -30 -91 -9 -9
-13 -38 -13 -77 1 -56 4 -66 33 -95 17 -17 37 -30 44 -29 6 2 12 -1 12 -6 0
-6 15 -17 34 -26 31 -15 37 -15 72 1 22 9 42 17 46 17 3 1 10 4 14 9 4 4 16 7
27 7 13 0 17 5 13 15 -3 8 0 15 7 15 12 0 52 46 52 60 0 3 9 15 19 25 10 11
25 35 33 54 8 20 22 40 29 46 11 7 15 34 16 95 2 98 -7 146 -28 154 -8 3 -14
13 -12 22 2 11 -14 27 -47 47 -65 38 -95 50 -95 36z"/>
<path d="M5565 5913 c-11 -3 -27 -11 -35 -18 -8 -7 -27 -15 -42 -19 -15 -3
-36 -19 -45 -34 -10 -15 -23 -33 -30 -40 -6 -6 -15 -21 -18 -32 -3 -11 -10
-20 -14 -20 -5 0 -15 -19 -23 -42 -8 -24 -20 -59 -27 -78 -16 -41 -15 -78 0
-96 6 -8 9 -23 6 -34 -3 -11 -1 -23 4 -26 5 -3 9 -16 9 -30 0 -17 5 -24 20
-24 11 0 20 -4 20 -9 0 -5 8 -11 18 -14 9 -4 35 -13 57 -21 54 -21 66 -20 94
9 13 14 29 25 36 25 24 0 95 79 95 105 0 14 6 25 13 25 6 0 17 12 23 28 16 40
32 132 22 132 -4 0 -8 18 -8 39 0 30 -9 51 -36 88 -41 54 -74 84 -86 77 -4 -3
-8 0 -8 5 0 11 -11 12 -45 4z"/>
<path d="M3552 4946 c-19 -21 -32 -50 -36 -79 -4 -24 -13 -53 -20 -63 -9 -12
-11 -26 -5 -41 4 -12 4 -25 0 -28 -7 -4 -8 -40 -1 -40 1 0 3 -29 6 -64 2 -38
9 -68 16 -73 10 -6 10 -10 -1 -17 -11 -7 -12 -13 -4 -23 5 -7 20 -49 32 -93
13 -48 33 -94 49 -112 15 -17 41 -48 57 -69 17 -20 42 -49 58 -65 15 -15 27
-32 27 -38 0 -6 11 -17 25 -23 14 -6 25 -19 25 -29 0 -11 11 -20 30 -24 17 -4
30 -11 30 -16 0 -5 7 -9 15 -9 8 0 15 -6 15 -14 0 -7 21 -21 48 -31 26 -10 60
-27 76 -38 20 -14 53 -22 103 -27 56 -4 77 -10 84 -23 6 -9 17 -17 25 -17 8 0
12 -4 9 -10 -8 -12 -7 -12 32 -1 17 5 34 6 38 3 4 -4 50 -8 103 -9 54 0 114
-4 135 -8 23 -4 56 -2 83 5 37 11 50 10 70 0 19 -11 32 -11 57 -3 27 10 54 10
113 1 6 -1 24 9 40 21 17 12 41 23 55 25 13 1 34 8 46 14 12 7 27 12 33 12 23
0 119 49 151 78 19 16 46 32 60 35 14 4 31 17 37 31 6 13 24 30 41 37 17 8 38
27 47 44 9 17 29 37 45 44 15 7 31 21 34 32 4 10 13 19 21 19 8 0 14 9 14 20
0 13 7 20 19 20 20 0 36 36 20 46 -5 3 -1 17 10 32 19 28 33 90 35 154 1 32
16 70 16 40 0 -7 5 -12 11 -12 21 0 3 77 -23 102 -13 13 -22 30 -20 40 2 10
-5 19 -17 23 -12 3 -21 11 -21 16 0 5 -6 9 -14 9 -8 0 -17 7 -20 16 -3 9 -13
14 -20 11 -8 -3 -16 -1 -19 6 -5 16 -97 16 -97 0 0 -7 -9 -13 -20 -13 -11 0
-19 -5 -18 -12 3 -13 -38 -38 -64 -38 -11 0 -18 -8 -18 -20 0 -13 -7 -20 -20
-20 -11 0 -20 -6 -20 -12 0 -7 -12 -24 -25 -37 -14 -13 -25 -29 -25 -37 0 -8
-5 -14 -11 -14 -6 0 -8 -7 -5 -15 4 -11 0 -15 -12 -13 -11 2 -18 -5 -20 -19
-2 -13 -10 -23 -18 -23 -9 0 -14 -7 -12 -17 2 -12 -4 -19 -19 -21 -13 -2 -23
-10 -23 -18 0 -27 -42 -57 -87 -62 -37 -4 -43 -7 -38 -23 4 -11 2 -20 -4 -20
-6 -1 -15 -3 -21 -4 -5 -1 -19 -3 -31 -4 -12 0 -17 -5 -13 -12 4 -8 0 -8 -15
0 -15 8 -32 9 -57 2 -41 -11 -134 -3 -134 11 0 6 -12 7 -27 3 -57 -14 -75 -16
-68 -5 3 5 -3 10 -14 10 -10 0 -21 -5 -23 -10 -4 -14 -110 -15 -136 -1 -11 6
-32 11 -46 11 -16 0 -26 6 -26 15 0 8 -7 16 -15 16 -8 1 -33 3 -55 5 -22 2
-53 5 -69 7 -16 1 -38 12 -49 25 -14 16 -22 19 -25 10 -4 -9 -12 -6 -28 12
-11 14 -29 24 -39 22 -10 -2 -20 4 -23 13 -4 8 -13 15 -20 15 -8 0 -22 9 -32
20 -10 11 -21 17 -25 15 -4 -3 -10 2 -14 10 -3 8 -16 15 -30 15 -15 0 -30 10
-41 28 -10 15 -24 31 -32 35 -7 4 -13 19 -13 32 0 14 -4 25 -8 25 -4 0 -9 16
-10 37 -2 20 -12 49 -23 65 -12 16 -21 44 -22 63 -1 19 -5 35 -10 35 -5 0 -7
7 -3 15 8 22 -44 68 -61 53 -13 -11 -17 -5 -14 25 3 26 -14 20 -47 -17z"/>
<path d="M3650 4951 c0 -6 4 -13 10 -16 6 -3 7 1 4 9 -7 18 -14 21 -14 7z"/>
<path d="M5280 4790 c20 -13 43 -13 35 0 -3 6 -16 10 -28 10 -18 0 -19 -2 -7
-10z"/>
<path d="M5230 4740 c0 -5 5 -10 11 -10 5 0 7 5 4 10 -3 6 -8 10 -11 10 -2 0
-4 -4 -4 -10z"/>
</g>
</svg>
